<mxfile host="app.diagrams.net" modified="2024-05-25T08:58:36.793Z" agent="Mozilla/5.0 (Macintosh; Intel Mac OS X 10_15_7) AppleWebKit/537.36 (KHTML, like Gecko) Chrome/125.0.0.0 Safari/537.36" etag="F4xh4zvEnH5Xz03qUZLb" version="24.4.2" type="device">
  <diagram name="ページ1" id="8seGBtygA8eRMkJuS4D7">
    <mxGraphModel dx="763" dy="408" grid="1" gridSize="10" guides="1" tooltips="1" connect="1" arrows="1" fold="1" page="1" pageScale="1" pageWidth="827" pageHeight="1169" math="1" shadow="0">
      <root>
        <mxCell id="0" />
        <mxCell id="1" parent="0" />
        <mxCell id="2JYzVxW-8u_eNLuhjB4G-8" style="rounded=0;orthogonalLoop=1;jettySize=auto;html=1;exitX=0;exitY=1;exitDx=0;exitDy=0;entryX=0.5;entryY=0;entryDx=0;entryDy=0;endArrow=none;endFill=0;" edge="1" parent="1" source="2JYzVxW-8u_eNLuhjB4G-2" target="2JYzVxW-8u_eNLuhjB4G-4">
          <mxGeometry relative="1" as="geometry" />
        </mxCell>
        <mxCell id="2JYzVxW-8u_eNLuhjB4G-9" style="rounded=0;orthogonalLoop=1;jettySize=auto;html=1;exitX=0.5;exitY=1;exitDx=0;exitDy=0;entryX=0.5;entryY=0;entryDx=0;entryDy=0;endArrow=none;endFill=0;" edge="1" parent="1" source="2JYzVxW-8u_eNLuhjB4G-2" target="2JYzVxW-8u_eNLuhjB4G-6">
          <mxGeometry relative="1" as="geometry" />
        </mxCell>
        <mxCell id="2JYzVxW-8u_eNLuhjB4G-2" value="$$v_0$$" style="ellipse;whiteSpace=wrap;html=1;aspect=fixed;" vertex="1" parent="1">
          <mxGeometry x="120" y="80" width="30" height="30" as="geometry" />
        </mxCell>
        <mxCell id="2JYzVxW-8u_eNLuhjB4G-4" value="" style="ellipse;whiteSpace=wrap;html=1;aspect=fixed;" vertex="1" parent="1">
          <mxGeometry x="70" y="170" width="30" height="30" as="geometry" />
        </mxCell>
        <mxCell id="2JYzVxW-8u_eNLuhjB4G-6" value="" style="ellipse;whiteSpace=wrap;html=1;aspect=fixed;" vertex="1" parent="1">
          <mxGeometry x="120" y="170" width="30" height="30" as="geometry" />
        </mxCell>
        <mxCell id="2JYzVxW-8u_eNLuhjB4G-7" value="" style="ellipse;whiteSpace=wrap;html=1;aspect=fixed;" vertex="1" parent="1">
          <mxGeometry x="170" y="170" width="30" height="30" as="geometry" />
        </mxCell>
        <mxCell id="2JYzVxW-8u_eNLuhjB4G-10" style="rounded=0;orthogonalLoop=1;jettySize=auto;html=1;exitX=1;exitY=1;exitDx=0;exitDy=0;entryX=0.5;entryY=0;entryDx=0;entryDy=0;endArrow=none;endFill=0;" edge="1" parent="1" source="2JYzVxW-8u_eNLuhjB4G-2" target="2JYzVxW-8u_eNLuhjB4G-7">
          <mxGeometry relative="1" as="geometry" />
        </mxCell>
        <mxCell id="2JYzVxW-8u_eNLuhjB4G-11" style="rounded=0;orthogonalLoop=1;jettySize=auto;html=1;exitX=0;exitY=1;exitDx=0;exitDy=0;entryX=0.5;entryY=0;entryDx=0;entryDy=0;endArrow=none;endFill=0;" edge="1" parent="1" target="2JYzVxW-8u_eNLuhjB4G-13">
          <mxGeometry relative="1" as="geometry">
            <mxPoint x="124" y="196" as="sourcePoint" />
          </mxGeometry>
        </mxCell>
        <mxCell id="2JYzVxW-8u_eNLuhjB4G-13" value="" style="ellipse;whiteSpace=wrap;html=1;aspect=fixed;" vertex="1" parent="1">
          <mxGeometry x="100" y="260" width="30" height="30" as="geometry" />
        </mxCell>
        <mxCell id="2JYzVxW-8u_eNLuhjB4G-15" value="" style="ellipse;whiteSpace=wrap;html=1;aspect=fixed;" vertex="1" parent="1">
          <mxGeometry x="140" y="260" width="30" height="30" as="geometry" />
        </mxCell>
        <mxCell id="2JYzVxW-8u_eNLuhjB4G-16" style="rounded=0;orthogonalLoop=1;jettySize=auto;html=1;exitX=1;exitY=1;exitDx=0;exitDy=0;entryX=0.5;entryY=0;entryDx=0;entryDy=0;endArrow=none;endFill=0;" edge="1" parent="1" target="2JYzVxW-8u_eNLuhjB4G-15">
          <mxGeometry relative="1" as="geometry">
            <mxPoint x="146" y="196" as="sourcePoint" />
          </mxGeometry>
        </mxCell>
        <mxCell id="2JYzVxW-8u_eNLuhjB4G-17" style="rounded=0;orthogonalLoop=1;jettySize=auto;html=1;exitX=0;exitY=1;exitDx=0;exitDy=0;entryX=0.5;entryY=0;entryDx=0;entryDy=0;endArrow=none;endFill=0;" edge="1" parent="1" target="2JYzVxW-8u_eNLuhjB4G-18" source="2JYzVxW-8u_eNLuhjB4G-4">
          <mxGeometry relative="1" as="geometry">
            <mxPoint x="44" y="196" as="sourcePoint" />
          </mxGeometry>
        </mxCell>
        <mxCell id="2JYzVxW-8u_eNLuhjB4G-18" value="" style="ellipse;whiteSpace=wrap;html=1;aspect=fixed;" vertex="1" parent="1">
          <mxGeometry x="20" y="260" width="30" height="30" as="geometry" />
        </mxCell>
        <mxCell id="2JYzVxW-8u_eNLuhjB4G-19" value="" style="ellipse;whiteSpace=wrap;html=1;aspect=fixed;" vertex="1" parent="1">
          <mxGeometry x="60" y="260" width="30" height="30" as="geometry" />
        </mxCell>
        <mxCell id="2JYzVxW-8u_eNLuhjB4G-20" style="rounded=0;orthogonalLoop=1;jettySize=auto;html=1;exitX=0.5;exitY=1;exitDx=0;exitDy=0;entryX=0.5;entryY=0;entryDx=0;entryDy=0;endArrow=none;endFill=0;" edge="1" parent="1" target="2JYzVxW-8u_eNLuhjB4G-19" source="2JYzVxW-8u_eNLuhjB4G-4">
          <mxGeometry relative="1" as="geometry">
            <mxPoint x="66" y="196" as="sourcePoint" />
          </mxGeometry>
        </mxCell>
        <mxCell id="2JYzVxW-8u_eNLuhjB4G-21" style="rounded=0;orthogonalLoop=1;jettySize=auto;html=1;exitX=0.5;exitY=1;exitDx=0;exitDy=0;entryX=0.5;entryY=0;entryDx=0;entryDy=0;endArrow=none;endFill=0;" edge="1" parent="1" target="2JYzVxW-8u_eNLuhjB4G-22" source="2JYzVxW-8u_eNLuhjB4G-7">
          <mxGeometry relative="1" as="geometry">
            <mxPoint x="204" y="196" as="sourcePoint" />
          </mxGeometry>
        </mxCell>
        <mxCell id="2JYzVxW-8u_eNLuhjB4G-22" value="" style="ellipse;whiteSpace=wrap;html=1;aspect=fixed;" vertex="1" parent="1">
          <mxGeometry x="180" y="260" width="30" height="30" as="geometry" />
        </mxCell>
        <mxCell id="2JYzVxW-8u_eNLuhjB4G-23" value="" style="ellipse;whiteSpace=wrap;html=1;aspect=fixed;" vertex="1" parent="1">
          <mxGeometry x="220" y="260" width="30" height="30" as="geometry" />
        </mxCell>
        <mxCell id="2JYzVxW-8u_eNLuhjB4G-24" style="rounded=0;orthogonalLoop=1;jettySize=auto;html=1;exitX=1;exitY=1;exitDx=0;exitDy=0;entryX=0.5;entryY=0;entryDx=0;entryDy=0;endArrow=none;endFill=0;" edge="1" parent="1" target="2JYzVxW-8u_eNLuhjB4G-23" source="2JYzVxW-8u_eNLuhjB4G-7">
          <mxGeometry relative="1" as="geometry">
            <mxPoint x="226" y="196" as="sourcePoint" />
          </mxGeometry>
        </mxCell>
        <mxCell id="2JYzVxW-8u_eNLuhjB4G-25" value="" style="curved=1;endArrow=classic;html=1;rounded=0;strokeColor=#EB1700;strokeWidth=2;entryX=-0.073;entryY=0.696;entryDx=0;entryDy=0;entryPerimeter=0;" edge="1" parent="1" target="2JYzVxW-8u_eNLuhjB4G-2">
          <mxGeometry width="50" height="50" relative="1" as="geometry">
            <mxPoint x="150" y="100" as="sourcePoint" />
            <mxPoint x="50" y="240" as="targetPoint" />
            <Array as="points">
              <mxPoint x="190" y="180" />
              <mxPoint x="260" y="280" />
              <mxPoint x="240" y="280" />
              <mxPoint x="180" y="170" />
              <mxPoint x="200" y="270" />
              <mxPoint x="190" y="270" />
              <mxPoint x="180" y="180" />
              <mxPoint x="140" y="100" />
              <mxPoint x="130" y="100" />
              <mxPoint x="90" y="180" />
              <mxPoint x="70" y="170" />
            </Array>
          </mxGeometry>
        </mxCell>
        <mxCell id="2JYzVxW-8u_eNLuhjB4G-26" value="" style="endArrow=none;html=1;rounded=0;" edge="1" parent="1">
          <mxGeometry width="50" height="50" relative="1" as="geometry">
            <mxPoint x="280" y="280" as="sourcePoint" />
            <mxPoint x="680" y="280" as="targetPoint" />
          </mxGeometry>
        </mxCell>
        <mxCell id="2JYzVxW-8u_eNLuhjB4G-27" value="" style="endArrow=none;html=1;rounded=0;" edge="1" parent="1">
          <mxGeometry width="50" height="50" relative="1" as="geometry">
            <mxPoint x="319" y="320" as="sourcePoint" />
            <mxPoint x="319" y="70" as="targetPoint" />
          </mxGeometry>
        </mxCell>
        <mxCell id="2JYzVxW-8u_eNLuhjB4G-28" value="" style="endArrow=none;html=1;rounded=0;strokeColor=#EB1700;strokeWidth=2;" edge="1" parent="1">
          <mxGeometry width="50" height="50" relative="1" as="geometry">
            <mxPoint x="319" y="280" as="sourcePoint" />
            <mxPoint x="640" y="280" as="targetPoint" />
            <Array as="points">
              <mxPoint x="360" y="240" />
              <mxPoint x="400" y="200" />
              <mxPoint x="440" y="240" />
              <mxPoint x="480" y="200" />
              <mxPoint x="520" y="240" />
              <mxPoint x="560" y="280" />
              <mxPoint x="600" y="240" />
            </Array>
          </mxGeometry>
        </mxCell>
        <mxCell id="2JYzVxW-8u_eNLuhjB4G-29" value="$$1$$" style="text;html=1;align=center;verticalAlign=middle;resizable=0;points=[];autosize=1;strokeColor=none;fillColor=none;" vertex="1" parent="1">
          <mxGeometry x="280" y="226" width="60" height="30" as="geometry" />
        </mxCell>
        <mxCell id="2JYzVxW-8u_eNLuhjB4G-30" value="$$2$$" style="text;html=1;align=center;verticalAlign=middle;resizable=0;points=[];autosize=1;strokeColor=none;fillColor=none;" vertex="1" parent="1">
          <mxGeometry x="280" y="185" width="60" height="30" as="geometry" />
        </mxCell>
      </root>
    </mxGraphModel>
  </diagram>
</mxfile>
